<svg version="1.1" viewBox="0.0 0.0 352.0 181.66666666666666" fill="none" stroke="none" stroke-linecap="square" stroke-miterlimit="10" xmlns:xlink="http://www.w3.org/1999/xlink" xmlns="http://www.w3.org/2000/svg"><clipPath id="p.0"><path d="m0 0l352.0 0l0 181.66667l-352.0 0l0 -181.66667z" clip-rule="nonzero"/></clipPath><g clip-path="url(#p.0)"><path fill="#000000" fill-opacity="0.0" d="m0 0l352.0 0l0 181.66667l-352.0 0z" fill-rule="evenodd"/><path fill="#ffffff" d="m-4.534732 -175.86618l177.20927 177.20927l177.20927 -177.20927l0 0l-177.20927 177.20927l177.20927 177.20927l0 0l-177.20927 -177.20927l-177.20927 177.20927l0 0l177.20927 -177.20927l-177.20927 -177.20927z" fill-rule="evenodd"/><path stroke="#ffffff" stroke-width="3.0" stroke-linejoin="round" stroke-linecap="butt" d="m-4.534732 -175.86618l177.20927 177.20927l177.20927 -177.20927l0 0l-177.20927 177.20927l177.20927 177.20927l0 0l-177.20927 -177.20927l-177.20927 177.20927l0 0l177.20927 -177.20927l-177.20927 -177.20927z" fill-rule="evenodd"/></g></svg>